solid Utencil holder
facet normal 0.0 0.0 -1.0
  outer loop
    vertex 109.92707327429271 26.925696536120306 0.0
    vertex 79.92707327429271 24.925696536120306 0.0
    vertex 79.92707327429271 26.925696536120306 0.0
  endloop
endfacet
facet normal 0.0 0.0 -1.0
  outer loop
    vertex 53.92707327429272 78.72158056833777 0.0
    vertex 49.92707327429271 53.721580568337764 0.0
    vertex 49.92707327429271 78.72158056833777 0.0
  endloop
endfacet
facet normal 0.0 0.0 -1.0
  outer loop
    vertex 49.92707327429271 53.721580568337764 0.0
    vertex 53.92707327429272 78.72158056833777 0.0
    vertex 53.92707327429272 56.288988374598866 0.0
  endloop
endfacet
facet normal 0.0 0.0 -1.0
  outer loop
    vertex 49.92707327429271 53.721580568337764 0.0
    vertex 53.92707327429272 56.288988374598866 0.0
    vertex 109.92707327429271 26.925696536120306 0.0
  endloop
endfacet
facet normal 0.0 0.0 -1.0
  outer loop
    vertex 109.92707327429271 26.925696536120306 0.0
    vertex 53.92707327429272 56.288988374598866 0.0
    vertex 113.12374660220357 29.330125706344145 0.0
  endloop
endfacet
facet normal 0.0 0.0 -1.0
  outer loop
    vertex 79.92707327429271 24.925696536120306 0.0
    vertex 49.92707327429271 22.925696536120306 0.0
    vertex 49.92707327429271 24.925696536120306 0.0
  endloop
endfacet
facet normal 0.0 0.0 -1.0
  outer loop
    vertex 49.92707327429271 22.925696536120306 0.0
    vertex 79.92707327429271 24.925696536120306 0.0
    vertex 113.12374660220357 22.925696536120306 0.0
  endloop
endfacet
facet normal 0.0 0.0 -1.0
  outer loop
    vertex 113.12374660220357 22.925696536120306 0.0
    vertex 79.92707327429271 24.925696536120306 0.0
    vertex 109.92707327429271 26.925696536120306 0.0
  endloop
endfacet
facet normal 0.0 0.0 -1.0
  outer loop
    vertex 113.12374660220357 22.925696536120306 0.0
    vertex 109.92707327429271 26.925696536120306 0.0
    vertex 113.12374660220357 29.330125706344145 0.0
  endloop
endfacet
facet normal -0.0 -0.0 1.0
  outer loop
    vertex 113.12374660220357 22.925696536120306 60.0
    vertex 49.92707327429271 24.925696536120306 60.0
    vertex 49.92707327429271 22.925696536120306 60.0
  endloop
endfacet
facet normal -0.0 -0.0 1.0
  outer loop
    vertex 49.92707327429271 24.925696536120306 60.0
    vertex 113.12374660220357 22.925696536120306 60.0
    vertex 79.92707327429271 24.925696536120306 60.0
  endloop
endfacet
facet normal -0.0 -0.0 1.0
  outer loop
    vertex 79.92707327429271 24.925696536120306 60.0
    vertex 113.12374660220357 22.925696536120306 60.0
    vertex 79.92707327429271 26.925696536120306 60.0
  endloop
endfacet
facet normal -0.0 -0.0 1.0
  outer loop
    vertex 79.92707327429271 26.925696536120306 60.0
    vertex 113.12374660220357 22.925696536120306 60.0
    vertex 109.92707327429271 26.925696536120306 60.0
  endloop
endfacet
facet normal -0.0 -0.0 1.0
  outer loop
    vertex 49.92707327429271 53.721580568337764 60.0
    vertex 53.92707327429272 56.288988374598866 60.0
    vertex 49.92707327429271 78.72158056833777 60.0
  endloop
endfacet
facet normal -0.0 -0.0 1.0
  outer loop
    vertex 53.92707327429272 56.288988374598866 60.0
    vertex 49.92707327429271 53.721580568337764 60.0
    vertex 109.92707327429271 26.925696536120306 60.0
  endloop
endfacet
facet normal -0.0 -0.0 1.0
  outer loop
    vertex 53.92707327429272 56.288988374598866 60.0
    vertex 109.92707327429271 26.925696536120306 60.0
    vertex 113.12374660220357 29.330125706344145 60.0
  endloop
endfacet
facet normal -0.0 -0.0 1.0
  outer loop
    vertex 113.12374660220357 29.330125706344145 60.0
    vertex 109.92707327429271 26.925696536120306 60.0
    vertex 113.12374660220357 22.925696536120306 60.0
  endloop
endfacet
facet normal -0.0 -0.0 1.0
  outer loop
    vertex 53.92707327429272 78.72158056833777 60.0
    vertex 49.92707327429271 78.72158056833777 60.0
    vertex 53.92707327429272 56.288988374598866 60.0
  endloop
endfacet
facet normal -1.0 0.0 0.0
  outer loop
    vertex 49.92707327429271 24.925696536120306 60.0
    vertex 49.92707327429271 22.925696536120306 0.0
    vertex 49.92707327429271 22.925696536120306 60.0
  endloop
endfacet
facet normal -1.0 0.0 0.0
  outer loop
    vertex 49.92707327429271 22.925696536120306 0.0
    vertex 49.92707327429271 24.925696536120306 60.0
    vertex 49.92707327429271 24.925696536120306 0.0
  endloop
endfacet
facet normal -0.0 1.0 0.0
  outer loop
    vertex 49.92707327429271 24.925696536120306 60.0
    vertex 79.92707327429271 24.925696536120306 0.0
    vertex 49.92707327429271 24.925696536120306 0.0
  endloop
endfacet
facet normal -0.0 1.0 0.0
  outer loop
    vertex 79.92707327429271 24.925696536120306 0.0
    vertex 49.92707327429271 24.925696536120306 60.0
    vertex 79.92707327429271 24.925696536120306 60.0
  endloop
endfacet
facet normal -1.0 0.0 0.0
  outer loop
    vertex 79.92707327429271 26.925696536120306 60.0
    vertex 79.92707327429271 24.925696536120306 0.0
    vertex 79.92707327429271 24.925696536120306 60.0
  endloop
endfacet
facet normal -1.0 0.0 0.0
  outer loop
    vertex 79.92707327429271 24.925696536120306 0.0
    vertex 79.92707327429271 26.925696536120306 60.0
    vertex 79.92707327429271 26.925696536120306 0.0
  endloop
endfacet
facet normal -0.0 1.0 0.0
  outer loop
    vertex 79.92707327429271 26.925696536120306 60.0
    vertex 109.92707327429271 26.925696536120306 0.0
    vertex 79.92707327429271 26.925696536120306 0.0
  endloop
endfacet
facet normal -0.0 1.0 0.0
  outer loop
    vertex 109.92707327429271 26.925696536120306 0.0
    vertex 79.92707327429271 26.925696536120306 60.0
    vertex 109.92707327429271 26.925696536120306 60.0
  endloop
endfacet
facet normal -0.4077798811164809 -0.9130802640275545 -0.0
  outer loop
    vertex 109.92707327429271 26.925696536120306 60.0
    vertex 49.92707327429271 53.721580568337764 0.0
    vertex 109.92707327429271 26.925696536120306 0.0
  endloop
endfacet
facet normal -0.4077798811164809 -0.9130802640275545 -0.0
  outer loop
    vertex 49.92707327429271 53.721580568337764 0.0
    vertex 109.92707327429271 26.925696536120306 60.0
    vertex 49.92707327429271 53.721580568337764 60.0
  endloop
endfacet
facet normal -1.0 1.127986593019159e-16 1.7271644161078297e-33
  outer loop
    vertex 49.92707327429271 53.721580568337764 60.0
    vertex 49.92707327429272 58.72158056833777 40.00000000000001
    vertex 49.92707327429271 53.721580568337764 0.0
  endloop
endfacet
facet normal -1.0 1.127986593019159e-16 1.7271644161078297e-33
  outer loop
    vertex 49.92707327429272 58.72158056833777 40.00000000000001
    vertex 49.92707327429271 53.721580568337764 60.0
    vertex 49.92707327429271 78.72158056833777 60.0
  endloop
endfacet
facet normal -1.0 1.127986593019159e-16 1.7271644161078297e-33
  outer loop
    vertex 49.92707327429272 58.72158056833777 40.00000000000001
    vertex 49.92707327429271 78.72158056833777 60.0
    vertex 49.92707327429272 78.72158056833777 40.00000000000001
  endloop
endfacet
facet normal -1.0 1.127986593019159e-16 1.7271644161078297e-33
  outer loop
    vertex 49.92707327429271 53.721580568337764 0.0
    vertex 49.92707327429272 58.72158056833777 20.0
    vertex 49.92707327429271 78.72158056833777 0.0
  endloop
endfacet
facet normal -1.0 1.127986593019159e-16 1.7271644161078297e-33
  outer loop
    vertex 49.92707327429272 58.72158056833777 20.0
    vertex 49.92707327429271 53.721580568337764 0.0
    vertex 49.92707327429272 58.72158056833777 40.00000000000001
  endloop
endfacet
facet normal -1.0 1.127986593019159e-16 1.7271644161078297e-33
  outer loop
    vertex 49.92707327429271 78.72158056833777 0.0
    vertex 49.92707327429272 58.72158056833777 20.0
    vertex 49.92707327429272 78.72158056833777 20.0
  endloop
endfacet
facet normal -0.0 1.0 -0.0
  outer loop
    vertex 49.92707327429272 78.72158056833777 20.0
    vertex 53.92707327429272 78.72158056833777 0.0
    vertex 49.92707327429271 78.72158056833777 0.0
  endloop
endfacet
facet normal -0.0 1.0 -0.0
  outer loop
    vertex 53.92707327429272 78.72158056833777 0.0
    vertex 49.92707327429272 78.72158056833777 20.0
    vertex 53.92707327429272 78.72158056833777 20.0
  endloop
endfacet
facet normal 1.0 -0.0 -0.0
  outer loop
    vertex 53.92707327429272 56.288988374598866 0.0
    vertex 53.92707327429272 58.72158056833777 20.0
    vertex 53.92707327429272 56.288988374598866 60.0
  endloop
endfacet
facet normal 1.0 -0.0 -0.0
  outer loop
    vertex 53.92707327429272 58.72158056833777 20.0
    vertex 53.92707327429272 56.288988374598866 0.0
    vertex 53.92707327429272 78.72158056833777 0.0
  endloop
endfacet
facet normal 1.0 -0.0 -0.0
  outer loop
    vertex 53.92707327429272 58.72158056833777 20.0
    vertex 53.92707327429272 78.72158056833777 0.0
    vertex 53.92707327429272 78.72158056833777 20.0
  endloop
endfacet
facet normal 1.0 -0.0 -0.0
  outer loop
    vertex 53.92707327429272 56.288988374598866 60.0
    vertex 53.92707327429272 58.72158056833777 40.00000000000001
    vertex 53.92707327429272 78.72158056833777 60.0
  endloop
endfacet
facet normal 1.0 -0.0 -0.0
  outer loop
    vertex 53.92707327429272 58.72158056833777 40.00000000000001
    vertex 53.92707327429272 56.288988374598866 60.0
    vertex 53.92707327429272 58.72158056833777 20.0
  endloop
endfacet
facet normal 1.0 -0.0 -0.0
  outer loop
    vertex 53.92707327429272 78.72158056833777 60.0
    vertex 53.92707327429272 58.72158056833777 40.00000000000001
    vertex 53.92707327429272 78.72158056833777 40.00000000000001
  endloop
endfacet
facet normal 0.4144562548874464 0.9100692351599804 0.0
  outer loop
    vertex 53.92707327429272 56.288988374598866 60.0
    vertex 113.12374660220357 29.330125706344145 0.0
    vertex 53.92707327429272 56.288988374598866 0.0
  endloop
endfacet
facet normal 0.4144562548874464 0.9100692351599804 0.0
  outer loop
    vertex 113.12374660220357 29.330125706344145 0.0
    vertex 53.92707327429272 56.288988374598866 60.0
    vertex 113.12374660220357 29.330125706344145 60.0
  endloop
endfacet
facet normal 1.0 0.0 0.0
  outer loop
    vertex 113.12374660220357 29.330125706344145 0.0
    vertex 113.12374660220357 22.925696536120306 60.0
    vertex 113.12374660220357 22.925696536120306 0.0
  endloop
endfacet
facet normal 1.0 0.0 0.0
  outer loop
    vertex 113.12374660220357 22.925696536120306 60.0
    vertex 113.12374660220357 29.330125706344145 0.0
    vertex 113.12374660220357 29.330125706344145 60.0
  endloop
endfacet
facet normal -0.0 -1.0 -0.0
  outer loop
    vertex 113.12374660220357 22.925696536120306 60.0
    vertex 49.92707327429271 22.925696536120306 0.0
    vertex 113.12374660220357 22.925696536120306 0.0
  endloop
endfacet
facet normal -0.0 -1.0 -0.0
  outer loop
    vertex 49.92707327429271 22.925696536120306 0.0
    vertex 113.12374660220357 22.925696536120306 60.0
    vertex 49.92707327429271 22.925696536120306 60.0
  endloop
endfacet
facet normal 0.0 0.0 -1.0
  outer loop
    vertex 53.92707327429272 78.72158056833777 40.00000000000001
    vertex 49.92707327429272 58.72158056833777 40.00000000000001
    vertex 49.92707327429272 78.72158056833777 40.00000000000001
  endloop
endfacet
facet normal 0.0 0.0 -1.0
  outer loop
    vertex 49.92707327429272 58.72158056833777 40.00000000000001
    vertex 53.92707327429272 78.72158056833777 40.00000000000001
    vertex 53.92707327429272 58.72158056833777 40.00000000000001
  endloop
endfacet
facet normal 0.0 1.0 0.0
  outer loop
    vertex 49.92707327429272 58.72158056833777 40.00000000000001
    vertex 53.92707327429272 58.72158056833777 20.0
    vertex 49.92707327429272 58.72158056833777 20.0
  endloop
endfacet
facet normal 0.0 1.0 0.0
  outer loop
    vertex 53.92707327429272 58.72158056833777 20.0
    vertex 49.92707327429272 58.72158056833777 40.00000000000001
    vertex 53.92707327429272 58.72158056833777 40.00000000000001
  endloop
endfacet
facet normal -0.0 -0.0 1.0
  outer loop
    vertex 53.92707327429272 58.72158056833777 20.0
    vertex 49.92707327429272 78.72158056833777 20.0
    vertex 49.92707327429272 58.72158056833777 20.0
  endloop
endfacet
facet normal -0.0 -0.0 1.0
  outer loop
    vertex 49.92707327429272 78.72158056833777 20.0
    vertex 53.92707327429272 58.72158056833777 20.0
    vertex 53.92707327429272 78.72158056833777 20.0
  endloop
endfacet
facet normal -0.0 1.0 -0.0
  outer loop
    vertex 49.92707327429271 78.72158056833777 60.0
    vertex 53.92707327429272 78.72158056833777 40.00000000000001
    vertex 49.92707327429272 78.72158056833777 40.00000000000001
  endloop
endfacet
facet normal -0.0 1.0 -0.0
  outer loop
    vertex 53.92707327429272 78.72158056833777 40.00000000000001
    vertex 49.92707327429271 78.72158056833777 60.0
    vertex 53.92707327429272 78.72158056833777 60.0
  endloop
endfacet
endsolid Utencil holder
