solid ascii
  facet normal 7.071068e-001 4.583100e-001 5.384719e-001
    outer loop
      vertex   5.000000e-001 -4.291493e+001 4.579670e-015
      vertex   3.000000e+000 -4.677207e+001 0.000000e+000
      vertex   5.000000e-001 2.661433e+001 -5.917848e+001
    endloop
  endfacet
  facet normal 7.071068e-001 4.583100e-001 5.384719e-001
    outer loop
      vertex   5.000000e-001 2.661433e+001 -5.917848e+001
      vertex   3.000000e+000 -4.677207e+001 0.000000e+000
      vertex   3.000000e+000 2.911433e+001 -6.458924e+001
    endloop
  endfacet
  facet normal 7.071068e-001 4.583100e-001 -5.384719e-001
    outer loop
      vertex   5.000000e-001 -4.291493e+001 4.579670e-015
      vertex   5.000000e-001 2.661433e+001 5.917848e+001
      vertex   3.000000e+000 -4.677207e+001 0.000000e+000
    endloop
  endfacet
  facet normal 7.071068e-001 4.583100e-001 -5.384719e-001
    outer loop
      vertex   3.000000e+000 -4.677207e+001 0.000000e+000
      vertex   5.000000e-001 2.661433e+001 5.917848e+001
      vertex   3.000000e+000 2.911433e+001 6.458924e+001
    endloop
  endfacet
  facet normal 7.071068e-001 -7.071068e-001 -8.490072e-017
    outer loop
      vertex   5.000000e-001 2.661433e+001 5.917848e+001
      vertex   5.000000e-001 2.661433e+001 -5.917848e+001
      vertex   3.000000e+000 2.911433e+001 6.458924e+001
    endloop
  endfacet
  facet normal 7.071068e-001 -7.071068e-001 1.166827e-016
    outer loop
      vertex   3.000000e+000 2.911433e+001 6.458924e+001
      vertex   5.000000e-001 2.661433e+001 -5.917848e+001
      vertex   3.000000e+000 2.911433e+001 -6.458924e+001
    endloop
  endfacet
  facet normal 0.000000e+000 6.481481e-001 -7.615143e-001
    outer loop
      vertex   5.000000e-001 2.661433e+001 5.917848e+001
      vertex   5.000000e-001 -4.291493e+001 4.579670e-015
      vertex   0.000000e+000 2.661433e+001 5.917848e+001
    endloop
  endfacet
  facet normal 0.000000e+000 6.481481e-001 -7.615143e-001
    outer loop
      vertex   0.000000e+000 2.661433e+001 5.917848e+001
      vertex   5.000000e-001 -4.291493e+001 4.579670e-015
      vertex   0.000000e+000 -4.291493e+001 4.579670e-015
    endloop
  endfacet
  facet normal 0.000000e+000 6.481481e-001 7.615143e-001
    outer loop
      vertex   5.000000e-001 -4.291493e+001 4.579670e-015
      vertex   5.000000e-001 2.661433e+001 -5.917848e+001
      vertex   0.000000e+000 -4.291493e+001 4.579670e-015
    endloop
  endfacet
  facet normal 0.000000e+000 6.481481e-001 7.615143e-001
    outer loop
      vertex   0.000000e+000 -4.291493e+001 4.579670e-015
      vertex   5.000000e-001 2.661433e+001 -5.917848e+001
      vertex   0.000000e+000 2.661433e+001 -5.917848e+001
    endloop
  endfacet
  facet normal 7.071068e-001 -4.583100e-001 5.384719e-001
    outer loop
      vertex   3.000000e+000 -4.677207e+001 0.000000e+000
      vertex   3.000000e+000 2.911433e+001 6.458924e+001
      vertex   5.000000e-001 -5.062921e+001 0.000000e+000
    endloop
  endfacet
  facet normal 7.071068e-001 -4.583100e-001 5.384719e-001
    outer loop
      vertex   5.000000e-001 -5.062921e+001 0.000000e+000
      vertex   3.000000e+000 2.911433e+001 6.458924e+001
      vertex   5.000000e-001 3.161433e+001 7.000000e+001
    endloop
  endfacet
  facet normal 7.071068e-001 7.071068e-001 -1.166827e-016
    outer loop
      vertex   3.000000e+000 2.911433e+001 6.458924e+001
      vertex   3.000000e+000 2.911433e+001 -6.458924e+001
      vertex   5.000000e-001 3.161433e+001 7.000000e+001
    endloop
  endfacet
  facet normal 7.071068e-001 7.071068e-001 5.383174e-017
    outer loop
      vertex   5.000000e-001 3.161433e+001 7.000000e+001
      vertex   3.000000e+000 2.911433e+001 -6.458924e+001
      vertex   5.000000e-001 3.161433e+001 -7.000000e+001
    endloop
  endfacet
  facet normal 7.071068e-001 -4.583100e-001 -5.384719e-001
    outer loop
      vertex   5.000000e-001 3.161433e+001 -7.000000e+001
      vertex   3.000000e+000 2.911433e+001 -6.458924e+001
      vertex   5.000000e-001 -5.062921e+001 0.000000e+000
    endloop
  endfacet
  facet normal 7.071068e-001 -4.583100e-001 -5.384719e-001
    outer loop
      vertex   5.000000e-001 -5.062921e+001 0.000000e+000
      vertex   3.000000e+000 2.911433e+001 -6.458924e+001
      vertex   3.000000e+000 -4.677207e+001 0.000000e+000
    endloop
  endfacet
  facet normal 0.000000e+000 -6.481481e-001 -7.615143e-001
    outer loop
      vertex   5.000000e-001 3.161433e+001 -7.000000e+001
      vertex   5.000000e-001 -5.062921e+001 0.000000e+000
      vertex   0.000000e+000 3.161433e+001 -7.000000e+001
    endloop
  endfacet
  facet normal -0.000000e+000 -6.481481e-001 -7.615143e-001
    outer loop
      vertex   0.000000e+000 3.161433e+001 -7.000000e+001
      vertex   5.000000e-001 -5.062921e+001 0.000000e+000
      vertex   0.000000e+000 -5.062921e+001 0.000000e+000
    endloop
  endfacet
  facet normal 0.000000e+000 -6.481481e-001 7.615143e-001
    outer loop
      vertex   5.000000e-001 -5.062921e+001 0.000000e+000
      vertex   5.000000e-001 3.161433e+001 7.000000e+001
      vertex   0.000000e+000 -5.062921e+001 0.000000e+000
    endloop
  endfacet
  facet normal 0.000000e+000 -6.481481e-001 7.615143e-001
    outer loop
      vertex   0.000000e+000 -5.062921e+001 0.000000e+000
      vertex   5.000000e-001 3.161433e+001 7.000000e+001
      vertex   0.000000e+000 3.161433e+001 7.000000e+001
    endloop
  endfacet
  facet normal 0.000000e+000 -1.000000e+000 -1.200678e-016
    outer loop
      vertex   5.000000e-001 2.661433e+001 -5.917848e+001
      vertex   5.000000e-001 2.661433e+001 5.917848e+001
      vertex   0.000000e+000 2.661433e+001 -5.917848e+001
    endloop
  endfacet
  facet normal -0.000000e+000 -1.000000e+000 -1.200678e-016
    outer loop
      vertex   0.000000e+000 2.661433e+001 -5.917848e+001
      vertex   5.000000e-001 2.661433e+001 5.917848e+001
      vertex   0.000000e+000 2.661433e+001 5.917848e+001
    endloop
  endfacet
  facet normal 0.000000e+000 1.000000e+000 7.612958e-017
    outer loop
      vertex   5.000000e-001 3.161433e+001 7.000000e+001
      vertex   5.000000e-001 3.161433e+001 -7.000000e+001
      vertex   0.000000e+000 3.161433e+001 7.000000e+001
    endloop
  endfacet
  facet normal 0.000000e+000 1.000000e+000 7.612958e-017
    outer loop
      vertex   0.000000e+000 3.161433e+001 7.000000e+001
      vertex   5.000000e-001 3.161433e+001 -7.000000e+001
      vertex   0.000000e+000 3.161433e+001 -7.000000e+001
    endloop
  endfacet
  facet normal -1.000000e+000 0.000000e+000 0.000000e+000
    outer loop
      vertex   0.000000e+000 2.661433e+001 5.917848e+001
      vertex   0.000000e+000 -4.291493e+001 4.579670e-015
      vertex   0.000000e+000 -5.062921e+001 0.000000e+000
    endloop
  endfacet
  facet normal -1.000000e+000 0.000000e+000 0.000000e+000
    outer loop
      vertex   0.000000e+000 3.161433e+001 7.000000e+001
      vertex   0.000000e+000 2.661433e+001 5.917848e+001
      vertex   0.000000e+000 -5.062921e+001 0.000000e+000
    endloop
  endfacet
  facet normal -1.000000e+000 -0.000000e+000 -0.000000e+000
    outer loop
      vertex   0.000000e+000 3.161433e+001 7.000000e+001
      vertex   0.000000e+000 3.161433e+001 -7.000000e+001
      vertex   0.000000e+000 2.661433e+001 5.917848e+001
    endloop
  endfacet
  facet normal -1.000000e+000 -0.000000e+000 -0.000000e+000
    outer loop
      vertex   0.000000e+000 2.661433e+001 5.917848e+001
      vertex   0.000000e+000 3.161433e+001 -7.000000e+001
      vertex   0.000000e+000 2.661433e+001 -5.917848e+001
    endloop
  endfacet
  facet normal -1.000000e+000 -0.000000e+000 -0.000000e+000
    outer loop
      vertex   0.000000e+000 2.661433e+001 -5.917848e+001
      vertex   0.000000e+000 3.161433e+001 -7.000000e+001
      vertex   0.000000e+000 -5.062921e+001 0.000000e+000
    endloop
  endfacet
  facet normal -1.000000e+000 -0.000000e+000 -0.000000e+000
    outer loop
      vertex   0.000000e+000 -4.291493e+001 4.579670e-015
      vertex   0.000000e+000 2.661433e+001 -5.917848e+001
      vertex   0.000000e+000 -5.062921e+001 0.000000e+000
    endloop
  endfacet
endsolid
